<?xml version="1.0" encoding="UTF-8"?>
<svg version="1.1" viewBox="0 0 700 700" xmlns="http://www.w3.org/2000/svg" xmlns:xlink="http://www.w3.org/1999/xlink">
  <path fill="#FFFFFF" d="m106.36 361.65c20.496 15.867 44.297 28.43 68.098 39.668 9.2578-28.43 22.48-56.199 36.363-82.645-8.5938-35.043-16.527-70.742-25.125-106.45-15.207-6.6133-30.414-13.883-44.297-22.48-19.172 22.48-35.043 46.941-47.602 72.727-2.6445 33.719 1.9844 67.438 12.562 99.172zm47.602-247.93c-3.9688 23.141-6.6133 46.281-9.2578 68.762 13.883 8.5938 29.09 15.867 44.297 22.48 25.785-17.191 55.539-37.023 88.594-58.184 4.6289-24.461 13.223-47.602 25.785-69.422-11.902-11.238-31.734-21.816-60.828-31.074-34.379 15.867-64.793 39.008-88.594 67.438zm271.73-79.34c-1.3242 5.9492-3.3047 11.902-5.2891 17.852 35.043 16.527 63.473 41.652 84.629 74.051 20.496-1.9844 40.332 1.9844 58.844 11.902-32.398-49.586-81.324-86.613-138.18-103.8zm189.09 245.29c0 146.12-119.01 265.12-265.12 265.12-146.12 0-264.46-119.01-264.46-265.12 0-146.12 118.35-264.46 264.46-264.46 146.12 0 265.12 118.35 265.12 264.46zm-14.547-58.184c1.9844 12.562 2.6445 25.125 3.9688 39.008l1.9844 2.6445c-0.66016-13.883-2.6445-27.77-5.9492-41.652zm6.6133 54.875c-2.6445-3.3047-4.6289-5.9492-7.2734-8.5938-16.527 13.223-35.703 23.141-54.875 31.074-9.918 32.398-21.816 67.438-39.008 95.867 7.2734 18.512 11.238 40.332 15.207 59.504 9.2578-1.9844 17.852-4.6289 25.785-9.2578 40.332-48.266 60.828-106.45 60.164-168.59zm-72.727 182.48c-4.6289 1.3242-9.918 2.6445-15.207 3.3047-31.074 21.816-62.809 42.977-95.867 62.809v1.3242c42.977-13.223 80-35.703 111.07-67.438zm-118.35 69.422v-2.6445c-25.785-6.6133-50.91-15.867-75.371-24.461-33.059 3.3047-66.117 1.9844-99.172-5.2891-2.6445 4.6289-5.9492 8.5938-9.2578 11.902 56.199 29.754 122.31 37.023 183.8 20.496zm-105.12-448.27c-11.902 21.156-20.496 43.637-25.125 67.438 33.059 23.801 62.148 51.57 87.273 83.305 31.734-0.66016 66.117-5.2891 95.867-17.191 11.238-33.719 21.156-61.488 29.754-82.645-21.156-32.398-48.926-56.859-83.969-72.727-35.043 3.9688-70.082 11.238-103.8 21.816zm160.66 141.49c-30.414 11.902-65.453 15.867-97.852 17.191-13.223 31.074-27.77 62.148-42.312 92.562 15.207 27.77 31.074 56.199 48.926 81.984 40.332-2.6445 80-9.918 118.35-21.816 17.191-28.43 29.09-62.809 38.348-94.547-19.172-27.109-42.312-52.23-65.453-75.371zm-253.88 101.82c-14.547 26.445-27.77 54.215-36.363 82.645 17.191 29.09 38.348 56.199 60.828 81.984 31.734 7.2734 64.133 8.5938 96.527 5.2891 9.918-19.836 21.816-44.957 35.043-75.371-17.852-26.445-33.719-54.215-48.926-82.645-35.703 1.9844-72.727-3.9688-107.11-11.902z"/>
</svg>
